<?xml version="1.0" ?><svg viewBox="0 0 64 64" xmlns="http://www.w3.org/2000/svg"><g data-name="13-bin" id="_13-bin"><path d="M60.97,16.757l-1.243-4.969A4.992,4.992,0,0,0,54.877,8h-11.1L42.349,2.272A3,3,0,0,0,39.438,0H24.562a3,3,0,0,0-2.911,2.272L20.219,8H9.123a4.992,4.992,0,0,0-4.85,3.787L3.03,16.757A1,1,0,0,0,4,18H8.083L12,63.087A1,1,0,0,0,13,64H47a1,1,0,0,0,0-2H13.917L10.091,18H53.909L50,62.913A1,1,0,0,0,50.914,64,.844.844,0,0,0,51,64a1,1,0,0,0,1-.913L55.917,18H60a1,1,0,0,0,.97-1.243Zm-37.379-14A1,1,0,0,1,24.562,2H39.438a1,1,0,0,1,.971.758L41.719,8H22.281ZM5.281,16l.932-3.728A3,3,0,0,1,9.123,10H54.877a3,3,0,0,1,2.91,2.272L58.719,16Z"/><path d="M29,27V53a3,3,0,0,0,6,0V27a3,3,0,0,0-6,0Zm4,0V53a1,1,0,0,1-2,0V27a1,1,0,0,1,2,0Z"/><path d="M18.77,24.009a3,3,0,0,0-2.761,3.221l2,26A3.012,3.012,0,0,0,21,56c.076,0,.152,0,.232-.009a3,3,0,0,0,2.761-3.221l-2-26A3.012,3.012,0,0,0,18.77,24.009ZM22,52.923A1,1,0,0,1,21.079,54L21,54a1,1,0,0,1-1-.924l-2-26A1,1,0,0,1,18.923,26q.041,0,.081,0a.989.989,0,0,1,.993.923Z"/><path d="M42.009,26.77l-2,26a3,3,0,0,0,2.763,3.22c.078.006.154.009.23.009a3.012,3.012,0,0,0,2.989-2.77l2-26a3,3,0,0,0-5.982-.46ZM46,27.077l-2,26A1,1,0,0,1,43,54l-.079,0A1,1,0,0,1,42,52.924l2-26A.989.989,0,0,1,45,26l.081,0A1,1,0,0,1,46,27.077Z"/></g></svg>